<?xml version="1.0" encoding="UTF-8"?><svg id="b" xmlns="http://www.w3.org/2000/svg" viewBox="0 0 32.22 6.26"><defs><style>.d{fill:#221e1f;}.e{fill:#ec1b23;}</style></defs><g id="c"><g><g><path class="d" d="M7.5,3.13h1.13c.57,0,.94,.2,.75,.78-.12,.37-.49,.6-.85,.67h0c.34,.04,.51,.27,.33,.72-.2,.49-.7,.9-1.65,.9h-1.12l1.4-3.07Zm-.47,2.63h.28c.35,0,.64-.12,.8-.47,.16-.36-.03-.46-.34-.46h-.31l-.42,.93Zm.62-1.37h.21c.4,0,.63-.12,.77-.4,.13-.28,.03-.42-.33-.42h-.26l-.38,.83Z"/><path class="d" d="M11.27,3.13l-.98,2.14c-.14,.31-.16,.53,.18,.53,.3,0,.53-.23,.67-.53l.98-2.14h.76s-.98,2.15-.98,2.15c-.36,.78-1.04,.98-1.63,.98s-1.07-.23-.69-1.05l.95-2.08h.75Z"/><path class="d" d="M13.23,5.2l-.06,.14c-.13,.29-.11,.48,.28,.48,.22,0,.54-.12,.64-.38,.1-.26-.04-.42-.43-.57-.58-.23-.68-.59-.45-1.03,.3-.58,.83-.76,1.45-.76,.59,0,1,.23,.74,.83l-.05,.11h-.67c.13-.26,.15-.49-.19-.49-.33,0-.52,.19-.6,.37-.09,.19-.06,.31,.2,.43l.32,.14c.41,.19,.62,.5,.43,.94-.3,.68-.92,.87-1.61,.87-.73,0-1.01-.37-.78-.9l.08-.17h.71Z"/><path class="d" d="M16.51,3.13h.75l-.55,1.21h.85l.55-1.21h.76l-1.4,3.07h-.76l.62-1.37h-.85l-.62,1.37h-.75l1.4-3.07Z"/><path class="d" d="M18.33,6.2l1.4-3.07h.76l-1.4,3.07h-.76Z"/><path class="d" d="M21.4,3.13h1.19c.64,0,.95,.23,.77,.79-.14,.42-.5,.67-.94,.74h0c.4,.07,.47,.31,.18,.96-.14,.32-.17,.46-.07,.58h-.74c-.05-.1-.06-.22,.05-.48l.18-.44c.1-.24,.05-.4-.25-.4h-.42l-.6,1.32h-.74l1.4-3.07Zm.13,1.33h.27c.38,0,.65-.13,.79-.47,.13-.3,.05-.42-.31-.42h-.34l-.41,.89Z"/><path class="d" d="M25.6,3.07c.99,0,.97,.59,.5,1.6-.5,1.06-.84,1.6-1.95,1.6-.99,0-.93-.67-.5-1.6,.53-1.14,.87-1.6,1.95-1.6Zm-1.25,2.75c.39,0,.58-.17,1.02-1.16,.36-.83,.46-1.16,.03-1.16s-.53,.14-1.02,1.16c-.39,.82-.46,1.16-.03,1.16Z"/><path class="d" d="M28.05,3.13h.9l-.45,3.07h-.76l.14-.68h-.94l-.48,.68h-.76l2.35-3.07Zm-.78,1.92h.71l.29-1.42h0l-.99,1.42Z"/><path class="d" d="M30.28,3.13h1.06c1.03,0,1.03,.51,.64,1.49-.45,1.14-1,1.58-2,1.58h-1.1l1.4-3.07Zm-.46,2.62h.32c.51,0,.73-.27,1.11-1.11,.32-.7,.42-1.06-.14-1.06h-.31l-.98,2.17Z"/></g><path class="e" d="M.26,6.21H2.98c.87,0,2.16,0,2.47-.84,.34-.93-.96-1.25-.96-1.25,0,0,.8,.06,1.11-.51,.3-.57,.04-1.1-1.11-1.62C3.67,1.62,1.46,.59,.29,.04,.19,0,.1-.02,.04,.04c-.06,.06-.06,.14,.02,.24l1.46,1.77c.14,.17,.14,.35,.03,.6L.06,5.87c-.1,.22-.02,.35,.2,.35ZM3.15,3.87c.61,.3,1.06,.67,.88,1.16-.18,.47-.6,.66-1.96,.67-.16,0-.24,0-.15-.22l1.46-3.36c.06-.14,.15-.15,.28-.09,.7,.33,.98,.66,.75,1.24-.19,.49-.82,.53-1.23,.5-.1-.01-.11,.06-.03,.1Z"/></g></g></svg>