<svg xmlns="http://www.w3.org/2000/svg" viewBox="0 0 40 40"><defs><style>.a{fill:#1877f2;}.b{fill:#fff;}</style></defs><path class="a" d="M40,20A20,20,0,1,0,16.88,39.76v-14H11.8V20h5.08V15.59c0-5,3-7.78,7.55-7.78a30.84,30.84,0,0,1,4.48.39v4.92H26.38c-2.48,0-3.26,1.55-3.26,3.13V20h5.55l-.88,5.78H23.12v14A20,20,0,0,0,40,20Z"/><path class="b" d="M27.79,25.78,28.67,20H23.12V16.25c0-1.58.78-3.13,3.26-3.13h2.53V8.2a30.84,30.84,0,0,0-4.48-.39c-4.57,0-7.55,2.77-7.55,7.78V20H11.8v5.78h5.08v14a20.4,20.4,0,0,0,6.24,0v-14Z"/></svg>