<svg xmlns="http://www.w3.org/2000/svg" viewBox="0 0 40 40"><defs><style>.a{fill:#ff4500;}.b{fill:#fff;}</style></defs><circle class="a" cx="20" cy="20" r="20"/><path class="b" d="M33.33,20a2.92,2.92,0,0,0-2.92-2.92,2.8,2.8,0,0,0-2,.81,14.47,14.47,0,0,0-7.79-2.47l1.33-6.25,4.33.91a2.08,2.08,0,1,0,2.08-2.17A2,2,0,0,0,26.5,9.08l-4.84-1a.56.56,0,0,0-.4.07.59.59,0,0,0-.23.32l-1.47,7a14.15,14.15,0,0,0-7.91,2.47,3,3,0,0,0-2-.81,2.92,2.92,0,0,0-1.2,5.59,6.3,6.3,0,0,0-.07.89c0,4.49,5.22,8.11,11.68,8.11s11.67-3.62,11.67-8.11a4.87,4.87,0,0,0-.07-.87A3,3,0,0,0,33.33,20Zm-20,2.08a2.09,2.09,0,1,1,2.09,2.08A2.09,2.09,0,0,1,13.33,22.08ZM25,27.58C23.53,29,20.82,29.1,20,29.1s-3.53-.12-4.93-1.52a.54.54,0,0,1,.77-.77c.89.89,2.81,1.21,4.19,1.21s3.27-.32,4.18-1.21a.56.56,0,0,1,.78,0A.61.61,0,0,1,25,27.58Zm-.38-3.42a2.08,2.08,0,1,1,2.09-2.08A2.08,2.08,0,0,1,24.58,24.16Z"/></svg>