<svg xmlns="http://www.w3.org/2000/svg" viewBox="0 0 40 40"><defs><style>.a{fill:#4cc764;}.b{fill:#fff;}</style></defs><circle class="a" cx="20" cy="20" r="20"/><path class="b" d="M33.34,18.84c0-6-6-10.84-13.35-10.84S6.63,12.86,6.63,18.84c0,5.35,4.75,9.84,11.17,10.68.44.1,1,.29,1.18.66a2.75,2.75,0,0,1,0,1.21s-.16.94-.19,1.14-.27,1.32,1.16.72,7.69-4.52,10.49-7.75h0A9.64,9.64,0,0,0,33.34,18.84Z"/><path class="a" d="M28.9,22.28a.25.25,0,0,0,.25-.25v-1a.25.25,0,0,0-.25-.25H26.35v-1H28.9a.25.25,0,0,0,.25-.25v-.95a.25.25,0,0,0-.25-.25H26.35v-1H28.9a.25.25,0,0,0,.25-.25V16.2A.25.25,0,0,0,28.9,16H25.15a.25.25,0,0,0-.26.25h0V22h0a.25.25,0,0,0,.26.25H28.9Z"/><path class="a" d="M15,22.28a.26.26,0,0,0,.26-.25v-1a.26.26,0,0,0-.26-.25H12.47V16.2a.25.25,0,0,0-.25-.25h-1a.26.26,0,0,0-.26.25V22h0a.26.26,0,0,0,.26.25H15Z"/><rect class="a" x="16.08" y="15.95" width="1.46" height="6.34" rx="0.25"/><path class="a" d="M23.73,16h-.95a.26.26,0,0,0-.26.25v3.46l-2.66-3.6s0,0,0,0h0l0,0h0l0,0H18.7a.26.26,0,0,0-.26.25V22a.26.26,0,0,0,.26.25h.95A.25.25,0,0,0,19.9,22V18.57l2.67,3.61.07.06h1.09A.25.25,0,0,0,24,22V16.2A.25.25,0,0,0,23.73,16Z"/></svg>