<?xml version="1.0" encoding="UTF-8"?><svg id="b" xmlns="http://www.w3.org/2000/svg" xmlns:xlink="http://www.w3.org/1999/xlink" viewBox="0 0 259.21 65.55"><defs><style>.s{fill:url(#j);}.t{fill:url(#p);}.u{fill:url(#m);}.v{fill:#1ac7f6;}.w{fill:url(#r);}.x{fill:url(#h);}.y{fill:url(#i);}.z{fill:url(#l);}.aa{fill:#1a8ff6;}.ab{fill:url(#q);}.ac{fill:url(#f);}.ad{fill:url(#g);}.ae{fill:url(#n);}.af{fill:url(#e);}.ag{fill:url(#o);}.ah{fill:url(#d);}.ai{fill:none;}.aj{fill:url(#k);}</style><linearGradient id="d" x1="755.25" y1="43.55" x2="755.25" y2="13.22" gradientTransform="translate(968.37) rotate(-180) scale(1 -1)" gradientUnits="userSpaceOnUse"><stop offset=".11" stop-color="#1d7df6"/><stop offset=".58" stop-color="#1db1f6"/><stop offset="1" stop-color="#1de4f6"/></linearGradient><linearGradient id="e" x1="200.9" y1="43.55" x2="200.9" y2="13.22" gradientUnits="userSpaceOnUse"><stop offset="0" stop-color="#1de4f6"/><stop offset="1" stop-color="#1dacf6"/></linearGradient><linearGradient id="f" x1="87.68" y1="43.55" x2="87.68" y2=".14" gradientUnits="userSpaceOnUse"><stop offset="0" stop-color="#1d7df6"/><stop offset="1" stop-color="#1de4f6"/></linearGradient><linearGradient id="g" x1="3.92" y1="43.55" x2="3.92" y2=".14" gradientUnits="userSpaceOnUse"><stop offset=".31" stop-color="#1d7df6"/><stop offset=".43" stop-color="#1d87f6"/><stop offset=".63" stop-color="#1da3f6"/><stop offset=".9" stop-color="#1dd0f6"/><stop offset="1" stop-color="#1de4f6"/></linearGradient><linearGradient id="h" x1="30.32" y1="28.38" x2="0" y2="28.38" xlink:href="#f"/><linearGradient id="i" x1="228.89" y1="26.16" x2="254.77" y2="26.16" gradientUnits="userSpaceOnUse"><stop offset="0" stop-color="#1d7df6"/><stop offset="1" stop-color="#1de4f6"/></linearGradient><linearGradient id="j" x1="102.95" y1="33.74" x2="124.39" y2="12.3" xlink:href="#f"/><linearGradient id="k" x1="108.31" y1="30.6" x2="134.19" y2="30.6" gradientUnits="userSpaceOnUse"><stop offset="0" stop-color="#1de4f6"/><stop offset="1" stop-color="#1d7df6"/></linearGradient><linearGradient id="l" x1="150.13" x2="150.13" xlink:href="#f"/><linearGradient id="m" x1="174.29" x2="174.29" y2="20.48" xlink:href="#f"/><linearGradient id="n" x1="1302.4" y1="-537.65" x2="1289.74" y2="-524.99" gradientTransform="translate(-358.64 -1285.76) rotate(90)" gradientUnits="userSpaceOnUse"><stop offset="0" stop-color="#1dacf6"/><stop offset="1" stop-color="#1de4f6"/></linearGradient><linearGradient id="o" x1="233.33" y1="35.65" x2="259.21" y2="35.65" xlink:href="#e"/><linearGradient id="p" x1="40.33" y1="33.74" x2="61.77" y2="12.3" xlink:href="#f"/><linearGradient id="q" x1="45.69" x2="71.58" xlink:href="#k"/><linearGradient id="r" x1="242.98" y1="33.57" x2="242.98" y2="18.33" gradientUnits="userSpaceOnUse"><stop offset="0" stop-color="#1de4f6"/><stop offset=".14" stop-color="#21e4f6"/><stop offset=".29" stop-color="#2de6f6"/><stop offset=".43" stop-color="#42e9f6"/><stop offset=".58" stop-color="#5fedf6"/><stop offset=".73" stop-color="#84f2f6"/><stop offset=".88" stop-color="#b1f9f6"/><stop offset="1" stop-color="#dbfff6"/></linearGradient></defs><g id="c"><g><g><g><polygon class="ah" points="202.04 43.55 211.66 43.55 224.21 16.05 214.59 16.05 202.04 43.55"/><polygon class="af" points="202.04 43.55 211.66 43.55 199.76 16.05 190.14 16.05 202.04 43.55"/></g><g><path class="aa" d="M193.65,65.08v-1c5.03-3.88,7.14-5.7,7.14-6.95,0-.94-.78-1.7-1.75-1.7-1.23,0-2.29,.89-2.39,2l-2.68-.81c.07-2.2,2.38-4.06,5.08-4.06s5.11,2.03,5.11,4.44c0,1.8-1.6,3.78-4.09,5.05l-.04,.02,.06,.24h4.23v2.79h-10.66Z"/><path class="aa" d="M216.94,65.34c-3.59,0-5.92-2.51-5.92-6.39s2.32-6.39,5.92-6.39,5.86,2.51,5.86,6.39-2.3,6.4-5.86,6.4Zm-.03-9.9c-1.55,0-2.54,1.37-2.54,3.5s1,3.49,2.55,3.49,2.53-1.37,2.53-3.48-1-3.52-2.54-3.52Z"/><path class="aa" d="M228.95,65.08v-1c5.03-3.88,7.14-5.7,7.14-6.95,0-.94-.78-1.7-1.75-1.7-1.23,0-2.29,.89-2.39,2l-2.68-.81c.07-2.2,2.38-4.06,5.08-4.06s5.11,2.03,5.11,4.44c0,1.8-1.6,3.78-4.09,5.05l-.04,.02,.06,.24h4.23v2.79h-10.66Z"/></g><g><g><rect class="ac" x="83.76" y=".14" width="7.83" height="43.41"/><g><rect class="ad" x="0" y=".14" width="7.83" height="43.41"/><path class="x" d="M15.16,13.22C6.79,13.22,0,20.01,0,28.38v15.16s7.83,0,7.83,0v-15.16c0-4.04,3.29-7.33,7.33-7.33s7.33,3.29,7.33,7.33v15.16h7.83v-15.16c0-8.37-6.79-15.16-15.16-15.16Z"/></g><path class="y" d="M238.87,23.2c2.86-2.86,7.51-2.86,10.36,0l5.54-5.54c-5.92-5.92-15.52-5.92-21.44,0-5.92,5.92-5.92,15.52,0,21.44l5.54-5.54c-2.86-2.86-2.86-7.51,0-10.36Z"/></g><g><path class="s" d="M113.84,23.2c2.86-2.86,7.51-2.86,10.36,0l5.54-5.54c-5.92-5.92-15.52-5.92-21.44,0-5.92,5.92-5.92,15.52,0,21.44l5.54-5.54c-2.86-2.86-2.86-7.51,0-10.36Z"/><path class="aj" d="M124.21,33.57c2.86-2.86,2.86-7.51,0-10.36l5.54-5.54c5.92,5.92,5.92,15.52,0,21.44-5.92,5.92-15.52,5.92-21.44,0l5.54-5.54c2.86,2.86,7.51,2.86,10.36,0Z"/></g><rect class="z" x="146.21" y=".14" width="7.83" height="43.41"/></g><polygon class="u" points="170.34 43.55 178.24 43.55 178.24 20.48 170.34 25.93 170.34 43.55"/><polygon class="ae" points="185.35 10.32 170.34 0 170.34 20.63 185.35 10.32"/><path class="ag" d="M259.17,27.76h-7.83c.18,2.08-.52,4.22-2.1,5.8-2.86,2.86-7.51,2.86-10.36,0l-5.54,5.54c5.92,5.92,15.52,5.92,21.44,0,3.25-3.25,4.72-7.09,4.4-11.34Z"/><g><path class="t" d="M51.23,23.2c2.86-2.86,7.51-2.86,10.36,0l5.54-5.54c-5.92-5.92-15.52-5.92-21.44,0-5.92,5.92-5.92,15.52,0,21.44l5.54-5.54c-2.86-2.86-2.86-7.51,0-10.36Z"/><path class="ab" d="M61.6,33.57c2.86-2.86,2.86-7.51,0-10.36l5.54-5.54c5.92,5.92,5.92,15.52,0,21.44-5.92,5.92-15.52,5.92-21.44,0l5.54-5.54c2.86,2.86,7.51,2.86,10.36,0Z"/></g><path class="w" d="M238.87,23.2c-2.86,2.86-2.86,7.51,0,10.36l10.36-10.36c-2.86-2.86-7.51-2.86-10.36,0Z"/><g><path class="ai" d="M46.67,55.04h-2.3v3.93h2.36c1.49,0,2.36-.84,2.36-1.94v-.04c0-1.27-.93-1.94-2.41-1.94Z"/><rect class="v" x="41.4" y="61.48" width="2.97" height="3.85"/><path class="ai" d="M46.67,55.04h-2.3v3.93h2.36c1.49,0,2.36-.84,2.36-1.94v-.04c0-1.27-.93-1.94-2.41-1.94Z"/><path class="aa" d="M52.1,56.96v-.04c0-2.62-1.95-4.44-5.17-4.44h-5.52v8.99h5.23c3.03,0,5.46-1.54,5.46-4.51Zm-3.01,.06c0,1.1-.87,1.94-2.36,1.94h-2.36v-3.93h2.3c1.49,0,2.41,.68,2.41,1.94v.04Z"/><polygon class="v" points="125.97 65.33 129.44 65.33 138.71 52.49 135.24 52.49 125.97 65.33"/><polygon class="aa" points="138.91 65.33 135.43 65.33 126.16 52.49 129.64 52.49 138.91 65.33"/><path class="v" d="M8.93,58.36c-.6-.28-1.32-.51-2.15-.72-2.34-.57-2.92-.84-2.92-1.69v-.04c0-.62,.6-1.12,1.74-1.12s2.32,.48,3.51,1.27l1.54-2.13c-1.37-1.05-3.05-1.63-5.02-1.63-2.76,0-4.73,1.54-4.73,3.87v.04c0,2.55,1.76,3.26,4.48,3.93,.58,.14,1.03,.27,1.4,.39l2.14-2.17s0,0,0,0Z"/><path class="v" d="M2.13,61.46l-1.76,2c.67,.57,1.41,1.01,2.2,1.34l1.99-2.01c-.87-.26-1.66-.72-2.43-1.33Z"/><path class="aa" d="M11.02,60.87c-.02-.13-.04-.25-.08-.36,0-.03-.01-.06-.02-.09-.04-.14-.09-.28-.16-.41-.01-.02-.02-.04-.03-.06-.06-.11-.12-.21-.19-.31-.02-.03-.04-.05-.05-.08-.17-.23-.38-.44-.62-.63-.02-.02-.04-.03-.06-.04-.11-.08-.23-.17-.36-.24-.01,0-.35-.2-.51-.27l-2.15,2.17c.12,.04,.23,.08,.33,.12,.02,0,.03,.01,.05,.02,.2,.08,.36,.17,.48,.25,.01,0,.02,.02,.03,.02,.12,.09,.21,.18,.27,.27,0,.01,.01,.02,.02,.03,.03,.05,.05,.1,.07,.15,0,0,0,0,0,0,.02,.05,.03,.1,.04,.16,0,.01,0,.03,0,.04,0,.05,.01,.11,.01,.17,0,0,0,0,0,0v.04c0,.41-.22,.72-.61,.93-.15,.08-.32,.15-.52,.19-.24,.05-.51,.08-.82,.08,0,0,0,0,0,0-.17,0-.34,0-.5-.02-.06,0-.11-.01-.16-.02-.11-.01-.22-.03-.33-.05-.06-.01-.12-.02-.18-.03-.14-.03-.28-.07-.42-.11,0,0,0,0,0,0l-1.99,2.01s0,0,0,0c.26,.11,.52,.2,.78,.28,.06,.02,.12,.04,.18,.05,.17,.05,.35,.1,.52,.14,.12,.03,.24,.05,.36,.08,.09,.02,.18,.03,.26,.05,.2,.03,.39,.06,.59,.07,.05,0,.1,0,.16,.01,.22,.02,.45,.03,.67,.03,.91,0,1.74-.14,2.44-.41,.2-.08,.39-.17,.58-.27,.2-.11,.38-.22,.55-.35,.11-.08,.21-.17,.31-.27,.2-.19,.37-.4,.51-.62,.15-.23,.26-.47,.36-.74,.14-.4,.21-.84,.21-1.31v-.04c0-.17-.01-.34-.03-.5,0-.04-.01-.09-.02-.13Z"/><polygon class="v" points="23 52.49 20.03 52.49 23 55.5 23 52.49"/><path class="v" d="M31.81,52.49h-2.97v7.36c0,.51-.07,.96-.2,1.35l2.17,2.2c.65-.92,1-2.13,1-3.66v-7.25Z"/><path class="aa" d="M28.48,61.55s-.03,.05-.04,.08c-.12,.22-.27,.42-.45,.58-.02,.02-.04,.04-.06,.06-.18,.16-.39,.29-.61,.39-.03,.01-.06,.02-.08,.04-.12,.05-.24,.09-.37,.12,0,0,0,0,0,0-.13,.03-.26,.05-.4,.07-.03,0-.07,0-.1,.01-.14,.01-.29,.02-.44,.02-.79,0-1.45-.21-1.94-.62-.14-.12-.27-.25-.38-.4-.11-.15-.21-.31-.29-.5-.08-.18-.15-.38-.2-.59-.07-.32-.11-.68-.11-1.07v.09s0,0,0,0v-4.35l-2.97-3.01h0v7.25c0,3.87,2.28,5.78,5.89,5.8,.12,0,.24,0,.36-.01,.1,0,.2,0,.3-.01,.23-.02,.45-.04,.66-.08,.04,0,.08-.02,.12-.02,.17-.03,.34-.06,.51-.1,.05-.01,.09-.03,.14-.04,.16-.04,.31-.09,.46-.14,.04-.02,.08-.03,.13-.05,.15-.06,.29-.12,.43-.18,.04-.02,.07-.04,.11-.05,.14-.07,.28-.15,.41-.23,.03-.02,.05-.04,.08-.05,.14-.09,.27-.19,.39-.29,.02-.02,.04-.03,.05-.05,.13-.11,.26-.23,.37-.36,0,0,.02-.02,.03-.03,.13-.14,.24-.28,.35-.44,0,0,0,0,0,0l-2.17-2.2c-.04,.13-.1,.25-.16,.36Z"/><polygon class="v" points="63.64 62.82 63.64 60.12 65.84 60.12 60.69 55.01 60.69 65.33 70.98 65.33 70.98 62.82 63.64 62.82"/><polygon class="aa" points="70.02 60.12 70.02 57.61 63.65 57.61 63.64 57.61 63.64 55 70.89 55 70.89 52.49 60.69 52.49 60.69 55.01 65.84 60.12 70.02 60.12"/><path class="aa" d="M88.77,60.74c1.72-.61,2.9-1.91,2.9-3.98v-.04c0-1.21-.41-2.22-1.16-2.94-.89-.84-2.22-1.3-3.94-1.3h-3.21v2.55h2.95c1.45,0,2.34,.62,2.34,1.83v.04c0,1.08-.83,1.82-2.28,1.82h-.68v2.49h0l2.9,4.11h3.48l-3.3-4.59Z"/><polygon class="v" points="80.39 52.49 80.39 65.33 83.36 65.33 83.36 55.04 83.36 55.04 83.36 52.49 80.39 52.49"/><polygon class="v" points="110.62 62.82 110.62 60.12 116.99 60.12 116.99 57.61 112.78 57.61 107.66 62.79 107.66 65.33 117.95 65.33 117.95 62.82 110.62 62.82"/><path class="ai" d="M152.33,55.04h-2.3v3.93h2.36c1.49,0,2.36-.84,2.36-1.94v-.04c0-1.27-.93-1.94-2.41-1.94Z"/><rect class="v" x="147.06" y="61.48" width="2.97" height="3.85"/><path class="ai" d="M152.33,55.04h-2.3v3.93h2.36c1.49,0,2.36-.84,2.36-1.94v-.04c0-1.27-.93-1.94-2.41-1.94Z"/><path class="aa" d="M157.75,56.96v-.04c0-2.62-1.95-4.44-5.17-4.44h-5.52v8.99h5.23c3.03,0,5.46-1.54,5.46-4.51Zm-3.01,.06c0,1.1-.87,1.94-2.36,1.94h-2.36v-3.93h2.3c1.49,0,2.41,.68,2.41,1.94v.04Z"/><path class="v" d="M170.65,52.27c-1.84,0-3.45,.58-4.69,1.54l1.98,2c.69-.59,1.61-.94,2.67-.94,2.39,0,4.09,1.83,4.09,4.04v.04c0,1.03-.37,1.98-1.01,2.69l2,2.03c1.32-1.21,2.11-2.89,2.11-4.75v-.04c0-3.65-2.99-6.6-7.16-6.6Z"/><path class="aa" d="M170.65,62.94s-.01,0-.02,0-.01,0-.02,0c-2.39,0-4.06-1.8-4.06-4v-.04s0,0,0,0v-.03c0-1.23,.52-2.32,1.39-3.06l-1.98-2c-1.57,1.22-2.52,3.06-2.52,5.1,0,3.64,3.02,6.63,7.18,6.64,2.04,0,3.8-.73,5.07-1.89l-2-2.03c-.72,.8-1.78,1.31-3.05,1.31Z"/></g></g><path class="aa" d="M251.54,65.54c-1.56,0-2.85-.37-3.85-1.1-1.01-.74-1.57-1.76-1.67-3.04l-.03-.37,3.53,.06v.23c.11,.54,.35,.93,.72,1.18,.38,.26,.87,.39,1.46,.39s1.13-.15,1.53-.45c.38-.28,.56-.61,.56-1.01,0-.43-.25-.8-.78-1.11-.56-.34-1.39-.52-2.48-.53l-.04-2.51s.03,0,.05,0c.76,0,1.24-.14,1.47-.23,.3-.11,.53-.25,.69-.43,.15-.17,.22-.33,.22-.51,0-.23-.1-.41-.32-.57-.24-.17-.57-.26-.98-.26-.37,0-.7,.08-1,.25-.29,.16-.47,.36-.58,.62l-.09,.22-3.43-.04,.12-.33c.16-.94,.61-1.7,1.33-2.28,.99-.78,2.24-1.17,3.73-1.17,1.33,0,2.46,.33,3.37,.98,.93,.67,1.41,1.48,1.41,2.42,0,.59-.21,1.13-.63,1.62-.24,.28-.56,.53-.93,.75l-.1,.06,.11,.04c.59,.23,1.09,.55,1.48,.94,.58,.58,.88,1.29,.88,2.08,0,1.15-.56,2.13-1.65,2.92-1.07,.77-2.44,1.16-4.09,1.16Z"/><polygon class="aa" points="107.66 52.49 107.66 62.79 112.78 57.61 110.62 57.61 110.62 57.61 110.62 55 117.84 55 117.84 52.49 107.66 52.49"/></g></g></svg>