<svg xmlns="http://www.w3.org/2000/svg" width="297" height="50" viewBox="0 0 297 50"><g transform="translate(0 0.143)"><rect width="297" height="50" rx="25" transform="translate(0 -0.143)" fill="#1d9bf0"/><g transform="translate(8 8)"><circle cx="17" cy="17" r="17" transform="translate(0 -0.142)" fill="#1d9bf0"/><path d="M555.109,9618.479a11.354,11.354,0,0,0,11.432-11.432c0-.174,0-.348-.012-.519a8.207,8.207,0,0,0,2-2.081,8.022,8.022,0,0,1-2.307.633,4.03,4.03,0,0,0,1.767-2.223,8.048,8.048,0,0,1-2.551.976,4.02,4.02,0,0,0-6.952,2.747,4.057,4.057,0,0,0,.1.918,11.409,11.409,0,0,1-8.281-4.2,4.021,4.021,0,0,0,1.243,5.363,3.985,3.985,0,0,1-1.82-.5c0,.017,0,.033,0,.051a4.021,4.021,0,0,0,3.224,3.939,4.035,4.035,0,0,1-1.059.143,4.094,4.094,0,0,1-.756-.073,4.022,4.022,0,0,0,3.753,2.79,8.059,8.059,0,0,1-4.99,1.721,8.169,8.169,0,0,1-.958-.057,11.365,11.365,0,0,0,6.159,1.8" transform="translate(-541.158 -9593.124)" fill="#fff"/></g><path d="M-96.967,0h1.131l.351-2.821h1.625L-94.2,0h1.144l.338-2.821h1.378V-4.056h-1.235l.221-1.781h1.313V-7.085H-92.2l.286-2.5h-1.105l-.325,2.5h-1.638l.3-2.5h-1.1l-.325,2.5h-1.339v1.248h1.183l-.221,1.781h-1.261v1.235h1.118Zm1.612-4.056.221-1.781H-93.5l-.221,1.781Zm17.459-.52a10.629,10.629,0,0,1-2.769-5.33l-1.56.481c.091.26.182.507.273.754,1.04,4.706-.377,7.683-2.873,7.683a1.9,1.9,0,0,1-2.041-2.067A7.781,7.781,0,0,1-84.2-8.19a4.573,4.573,0,0,1,.637-.286l-.481-1.43a24.491,24.491,0,0,1-4.355.741,7.209,7.209,0,0,1-.728.039l.221,1.677c.3-.065.507-.117.754-.169.455-.091,1.17-.208,1.664-.273a8.205,8.205,0,0,0-2.028,5.057A3.385,3.385,0,0,0-84.9.754c3.354,0,4.758-2.821,4.641-5.785a15.6,15.6,0,0,0,1.17,1.742Zm3.809-5.213.065,1.677c.273-.039.689-.091,1.014-.117.624-.026,2.067-.13,2.756-.143-1.014.923-4.095,3.51-5.668,4.953l1.2,1.274c1.222-1.365,2.561-2.782,4.8-2.782,1.456,0,2.4.715,2.4,1.729,0,1.742-1.989,2.6-5.447,2.145L-72.5.624C-67.834,1-65.754-.7-65.754-3.2c0-1.794-1.573-3.107-3.822-3.107a4.809,4.809,0,0,0-1.3.182c.975-.845,2.21-1.742,2.951-2.275.182-.117.468-.3.715-.429l-.858-1.131a6.537,6.537,0,0,1-.923.143c-.858.052-3.419.091-4.1.091A8.115,8.115,0,0,1-74.087-9.789Zm23.01.3a15.384,15.384,0,0,0-1.053-1.768l-1.027.429A12.971,12.971,0,0,1-52.1-9.035Zm-8.736-.845a14.253,14.253,0,0,1-.273,2.73c-.65.052-1.261.091-1.664.1a11.953,11.953,0,0,1-1.365,0l.143,1.742c.4-.065,1.066-.156,1.43-.2.247-.039.65-.091,1.1-.143A19.1,19.1,0,0,1-63.024-.078L-61.347.6a27.9,27.9,0,0,0,2.626-6.877c.364-.026.676-.052.884-.052.806,0,1.248.143,1.248,1.17a9.829,9.829,0,0,1-.52,3.523.946.946,0,0,1-.962.559,7.512,7.512,0,0,1-1.586-.273l.286,1.7a7.289,7.289,0,0,0,1.534.182A2.057,2.057,0,0,0-55.718-.65a12.585,12.585,0,0,0,.728-4.693c0-1.846-.962-2.457-2.327-2.457-.26,0-.65.026-1.079.052.091-.468.195-.936.273-1.326.065-.325.143-.728.221-1.066Zm7.189,1.443c-.26-.481-.715-1.3-1.04-1.781l-1.027.429a14.373,14.373,0,0,1,.884,1.534L-55-8.2a14.579,14.579,0,0,1,2.171,4.849l1.638-.767a25.581,25.581,0,0,0-2.093-4.485Zm8.45,8.112c-.754,0-1.3-.325-1.3-.806,0-.325.312-.611.793-.611.7,0,1.183.546,1.261,1.378A6.787,6.787,0,0,1-44.174-.78Zm2.834-9.282a6.209,6.209,0,0,1-.988.13c-.728.065-3.484.13-4.16.13-.364,0-.806-.026-1.17-.065l.052,1.677a8.5,8.5,0,0,1,1.053-.1c.676-.052,2.444-.13,3.107-.143-.637.559-1.976,1.638-2.691,2.236-.767.624-2.314,1.937-3.224,2.678l1.17,1.209c1.378-1.56,2.665-2.613,4.641-2.613,1.495,0,2.665.78,2.665,1.937a1.877,1.877,0,0,1-1.053,1.755,2.592,2.592,0,0,0-2.743-2.2,2.163,2.163,0,0,0-2.314,2c0,1.287,1.352,2.106,3.146,2.106,3.107,0,4.654-1.612,4.654-3.64,0-1.872-1.664-3.237-3.848-3.237a4.329,4.329,0,0,0-1.209.143c.806-.65,2.158-1.794,2.847-2.275q.429-.292.9-.585Zm7.163,4.55a13.082,13.082,0,0,1-2.444,3.354L-35.2-1.2a21.107,21.107,0,0,0,2.509-3.627Zm7.449-1.157c.364,0,.871.013,1.274.039v-1.7a10.341,10.341,0,0,1-1.287.091h-3.016V-9.269a8,8,0,0,1,.117-1.144h-1.924a8.639,8.639,0,0,1,.1,1.131v1.04h-3.3c-.4,0-.858-.052-1.248-.091v1.716c.364-.039.858-.052,1.248-.052h3.3v.013c0,.611,0,4.732-.013,5.213-.013.338-.13.468-.468.468a8.473,8.473,0,0,1-1.443-.143l.156,1.6A18.539,18.539,0,0,0-31.122.6C-30.2.6-29.757.13-29.757-.624V-6.669Zm-1.807,1.885A26.277,26.277,0,0,1-26.416-1.3l1.521-.832a30.218,30.218,0,0,0-2.223-3.419ZM-14.352-7.54v5.4h-6.279v-5.4Zm1.742-.416c0-.39,0-.871.026-1.261-.468.026-.962.026-1.287.026h-7.15c-.351,0-.845-.013-1.378-.026.026.364.026.9.026,1.261V-1.6c0,.624-.026,1.755-.039,1.82h1.794l-.013-.715h6.266l-.013.715h1.794c0-.052-.026-1.3-.026-1.807ZM-.182-6.916a2.742,2.742,0,0,1-.949.13H-7.566c-.4,0-.962-.026-1.508-.078v1.69c.546-.052,1.2-.065,1.508-.065h6.279A5.64,5.64,0,0,1-2.626-2.99,8.761,8.761,0,0,1-7.137-.715l1.3,1.469A9.735,9.735,0,0,0-1.2-2.054a9.343,9.343,0,0,0,1.924-3.6A4.816,4.816,0,0,1,.975-6.2Zm-7.7-1.378c.377-.026.936-.039,1.352-.039h4.979c.468,0,1.079.013,1.43.039V-9.971a12.257,12.257,0,0,1-1.4.065H-6.526a10.958,10.958,0,0,1-1.352-.065ZM10.543-6.448a21.241,21.241,0,0,0,3.445-2.795L12.6-10.5A13.721,13.721,0,0,1,9.2-7.566,19.972,19.972,0,0,1,3.289-5.213l.936,1.586A25.417,25.417,0,0,0,8.7-5.4v4.264a14.559,14.559,0,0,1-.091,1.7H10.66a8.938,8.938,0,0,1-.117-1.7ZM26.611-9.243a17.146,17.146,0,0,0-1-1.716l-1.066.442c.247.377.507.832.728,1.261a5.454,5.454,0,0,1-.611.026H18.642a14.475,14.475,0,0,1-1.547-.1V-7.5c.338-.026.949-.052,1.547-.052H24.7a8.348,8.348,0,0,1-1.534,3.666,8.543,8.543,0,0,1-5.1,3.055L19.487.715a10.288,10.288,0,0,0,5.226-3.588,13.123,13.123,0,0,0,1.95-4.732,6.566,6.566,0,0,1,.286-.9l-.819-.533Zm-.26-1.6A15.41,15.41,0,0,1,27.391-9.1l1.079-.468c-.247-.455-.715-1.248-1.04-1.716Zm15.379,4.1-.663.286a12.068,12.068,0,0,1,1.066,1.833L42.8-4.94A15.429,15.429,0,0,0,41.73-6.747Zm1.417-.546-.65.3a11.579,11.579,0,0,1,1.1,1.807l.676-.312A19.636,19.636,0,0,0,43.147-7.293ZM33.293-8.554,33.41-7.41c1.391-.286,4.9-.624,6.032-.754A5.2,5.2,0,0,0,37.05-3.822c0,2.873,2.717,4.147,5.1,4.251l.377-1.092c-2.093-.078-4.433-.871-4.433-3.38a4.5,4.5,0,0,1,2.938-4.069A10.667,10.667,0,0,1,43.55-8.32V-9.36c-.858.039-2.067.1-3.471.221-2.366.208-4.8.442-5.642.52C34.19-8.593,33.787-8.567,33.293-8.554ZM51.4-9.776l-1,.338a33.789,33.789,0,0,1,1.274,3.432l1.014-.351C52.468-7.085,51.688-9.152,51.4-9.776Zm4.576.494A11.741,11.741,0,0,1,53.9-3.939,10.525,10.525,0,0,1,48.789-.481l.9.91a11.413,11.413,0,0,0,5.1-3.757A13.619,13.619,0,0,0,56.94-8.2a6.052,6.052,0,0,1,.234-.741ZM47.775-9l-1.027.377A32.107,32.107,0,0,1,48.2-5.057l1.027-.364C48.932-6.279,48.113-8.268,47.775-9Zm21.294-1.157A14.343,14.343,0,0,1,65.65-7.28a20.518,20.518,0,0,1-5.811,2.392l.6,1.014A26,26,0,0,0,65.325-5.9V-.988A12.059,12.059,0,0,1,65.247.4h1.274a9.809,9.809,0,0,1-.078-1.391V-6.552a20.392,20.392,0,0,0,3.484-2.821Zm4.251,5.8c.4-.039,1.092-.065,1.807-.065h7.137c.585,0,1.131.052,1.391.065V-5.629c-.286.026-.754.065-1.4.065H75.127c-.728,0-1.417-.039-1.807-.065Zm22.945-.091a42.249,42.249,0,0,0-5.551-2.145V-8.71c0-.39.052-.949.091-1.352H89.531a8.2,8.2,0,0,1,.1,1.352v7.566A14.235,14.235,0,0,1,89.557.39H90.8a15.346,15.346,0,0,1-.078-1.534l-.013-4.29a34.082,34.082,0,0,1,5.109,2.093Z" transform="translate(162 29.857)" fill="#fff"/></g></svg>